<svg xmlns="http://www.w3.org/2000/svg" width="16" height="16" viewBox="0 0 16 16">
<path fill="currentColor" d="M7.44 3.63L7.79 5.26C8.11 6.74 9.26 7.89 10.74 8.21L12.37 8.56C12.92 8.68 12.92 9.46 12.37 9.58L10.74 9.93C9.26 10.25 8.11 11.4 7.79 12.88L7.44 14.51C7.32 15.06 6.54 15.06 6.42 14.51L6.07 12.88C5.75 11.4 4.6 10.25 3.12 9.93L1.49 9.58C0.94 9.46 0.94 8.68 1.49 8.56L3.12 8.21C4.6 7.89 5.75 6.74 6.07 5.26L6.42 3.63C6.54 3.08 7.32 3.08 7.44 3.63ZM12.61 1.35L12.92 2.48C13 3.06 13.46 3.52 14.04 3.6L15.17 3.91C15.52 4.01 15.52 4.5 15.17 4.6L14.04 4.91C13.46 4.99 13 5.45 12.92 6.03L12.61 7.16C12.51 7.51 12.02 7.51 11.92 7.16L11.61 6.03C11.53 5.45 11.07 4.99 10.49 4.91L9.36 4.6C9.01 4.5 9.01 4.01 9.36 3.91L10.49 3.6C11.07 3.52 11.53 3.06 11.61 2.48L11.92 1.35C12.02 1 12.51 1 12.61 1.35Z"/>
</svg>
